<svg xmlns="http://www.w3.org/2000/svg" width="332" height="144" fill="none"><path fill="#fff" d="M0 12.636C0 6.29 5.146 1.143 11.493 1.143h309.014C326.854 1.143 332 6.29 332 12.636V131.65c0 6.347-5.146 11.493-11.493 11.493H11.493C5.146 143.143 0 137.997 0 131.65V12.636Z"/><g fill="#29313D" fill-opacity=".8" clip-path="url(#a)"><path fill-rule="evenodd" d="m90.927 87-4.131 4.132c3.25 1.9 7.022 2.974 11.07 2.974 4.022 0 7.822-1.074 11.072-2.974L104.807 87a16.218 16.218 0 0 1-6.94 1.542A17.17 17.17 0 0 1 90.927 87ZM76.496 46.849 88.42 58.772a16.428 16.428 0 0 0-6.445 17.405 15.36 15.36 0 0 0 1.047 2.92l-4.131 4.13a23.662 23.662 0 0 1-1.322-2.643c-3.002-7.243-1.873-15.643 2.92-21.84l-3.967-3.965c-8.206 10.052-8.206 24.73 0 34.783l21.344-21.343 21.343 21.343c8.207-10.052 8.207-24.73 0-34.783l-3.966 3.966a21.923 21.923 0 0 1 2.892 21.839c-.386.909-.826 1.79-1.322 2.644l-4.131-4.131c.441-.937.771-1.9 1.047-2.92a16.412 16.412 0 0 0-6.445-17.405l11.953-11.924c15.532 13.109 15.642 37.399 0 50.618L97.867 76.095l-21.371 21.37c-15.643-13.19-15.505-37.508 0-50.617Z" clip-rule="evenodd"/><path d="M155.425 79.592a843.72 843.72 0 0 0-8.207-22.032c1.019.028 1.873.028 2.506.028.716 0 1.542 0 2.506-.028l4.517 13.357 1.9 5.26c.413-.798 1.019-2.065 1.845-3.828a149.94 149.94 0 0 0 1.763-3.883c-.496-1.514-1.13-3.332-1.873-5.48-.744-2.148-1.432-3.938-1.983-5.425.909.027 1.707.027 2.396.027.771 0 1.57 0 2.396-.028a99.933 99.933 0 0 0 1.68 5.784 100.826 100.826 0 0 0 2.478-5.784c.937.028 1.68.028 2.259.028.661 0 1.404 0 2.258-.028a290.704 290.704 0 0 0-2.561 5.288c-1.019 2.148-1.845 3.938-2.451 5.343.248.77.688 2.093 1.322 3.938.661 1.845 1.129 3.167 1.432 3.91l4.323-9.225 3.14-6.913 1.019-2.368c1.046.027 1.873.027 2.478.027.689 0 1.515 0 2.507-.027l-3.03 6.031-6.334 12.999-1.432 3.002c-1.157-.028-2.148-.028-2.947-.028-.853 0-1.845 0-2.974.028-.633-2.176-1.349-4.296-2.093-6.39a122.127 122.127 0 0 0-2.892 6.39c-1.156-.028-2.148-.028-2.974-.028-.881.028-1.873.055-2.974.055ZM184.727 66.787c.138-.772.248-1.322.275-1.625.028-.303.111-.799.193-1.432 1.46-.33 2.754-.579 3.883-.716a26.855 26.855 0 0 1 3.25-.22c1.184 0 2.258.137 3.25.412.991.276 1.762.716 2.313 1.322.551.606.826 1.46.826 2.589 0 .606-.082 2.176-.248 4.682a140.427 140.427 0 0 0-.303 7.793c-.826-.027-1.569-.027-2.258-.027-.661 0-1.432 0-2.313.027.138-1.294.248-2.809.33-4.516l.221-4.02c-.413.275-.716.467-.937.578-.22.11-.468.22-.716.302-.275.083-.743.22-1.432.413-.688.193-1.212.358-1.625.496a8.24 8.24 0 0 0-1.101.468 3.19 3.19 0 0 0-.826.606c-.221.22-.386.44-.496.689a1.85 1.85 0 0 0-.165.77c0 .442.137.855.385 1.157.248.303.606.551.992.689.385.138.853.193 1.404.193.331 0 .716-.028 1.102-.083.385-.055.909-.193 1.542-.413-.22.606-.496 1.515-.799 2.754-.771.138-1.377.22-1.817.248-.441.028-.882.055-1.267.055-1.35 0-2.479-.193-3.332-.55-.854-.359-1.515-.937-1.928-1.736-.413-.798-.634-1.597-.634-2.396 0-.468.083-.909.248-1.377a3.74 3.74 0 0 1 .716-1.239 6.814 6.814 0 0 1 1.212-1.102c.496-.358 1.212-.688 2.148-1.019.936-.33 2.176-.66 3.718-.991.413-.083.826-.193 1.267-.303.44-.11.798-.248 1.046-.358a2.35 2.35 0 0 0 .689-.468 2.67 2.67 0 0 0 .44-.578c.111-.193.138-.414.138-.634 0-.413-.138-.771-.413-1.074-.275-.303-.633-.496-1.074-.606a5.842 5.842 0 0 0-1.432-.165c-1.928 0-4.104.468-6.472 1.404ZM201.829 87c.276-3.001.523-6.884.716-11.676.221-4.764.331-8.648.331-11.622 2.038-.358 3.635-.606 4.737-.716a34.17 34.17 0 0 1 3.332-.165c1.459 0 2.781.165 3.993.523 1.212.33 2.176.909 2.892 1.735.716.826 1.267 1.735 1.625 2.81.358 1.073.523 2.175.523 3.331 0 1.185-.165 2.314-.496 3.388a8.74 8.74 0 0 1-1.542 2.919c-.689.854-1.487 1.487-2.396 1.9-.909.386-1.9.579-2.974.579a8.493 8.493 0 0 1-1.873-.22 6.637 6.637 0 0 1-1.625-.607 6.989 6.989 0 0 1-1.156-.743c-.303-.248-.689-.634-1.157-1.13l-.248 7.023.028 1.074c0 .138-.028.689-.028 1.625-.991 0-1.763-.027-2.286-.027h-2.396Zm5.508-20.324a20.332 20.332 0 0 0-.165 1.487l-.11 1.79c-.055.772-.055 1.35-.055 1.708 0 .661.055 1.294.192 1.873a4.205 4.205 0 0 0 2.231 2.809 3.77 3.77 0 0 0 1.708.385c.826 0 1.569-.22 2.23-.688.661-.468 1.185-1.157 1.57-2.066.386-.908.551-1.872.551-2.891 0-1.13-.193-2.093-.606-2.864-.413-.771-.936-1.35-1.625-1.708-.688-.358-1.459-.523-2.313-.523a13.345 13.345 0 0 0-3.608.688ZM222.759 79.592l.331-4.186.358-8.041.165-6.885c.028-1.24.028-2.203.028-2.892 1.129.028 1.927.028 2.396.028.55 0 1.294 0 2.203-.028l-.331 5.233-.385 8.372-.165 6.251-.028 2.176c-.964-.028-1.707-.028-2.258-.028-.579-.027-1.35 0-2.314 0Zm5.15-9.17 3.278-3.994c.275-.33.605-.77.991-1.266s.881-1.157 1.487-1.956c1.129.028 1.928.028 2.451.028.716 0 1.597 0 2.699-.028l-5.315 6.087-.964 1.156c.799 1.24 2.974 4.296 6.554 9.17-.963-.027-1.79-.027-2.478-.027-.689 0-1.542 0-2.561.028-.634-1.02-1.129-1.845-1.515-2.451-.386-.606-.744-1.157-1.102-1.625l-2.754-3.91c-.082-.138-.358-.551-.771-1.212ZM240.908 79.592c.165-1.624.275-2.974.331-4.048.11-1.707.192-3.718.275-5.948.083-2.231.138-4.38.165-6.417 1.047.027 1.845.027 2.369.027.468 0 1.266 0 2.341-.027-.138 1.872-.276 3.662-.359 5.37-.055 1.707-.137 3.635-.165 5.838-.027 2.204-.055 3.939-.055 5.205-.991-.027-1.762-.027-2.368-.027-.551 0-1.405.027-2.534.027Zm.881-19.222c.055-1.102.055-1.956.055-2.561v-.496c.992.027 1.763.027 2.396.027.827 0 1.625 0 2.341-.027a9.116 9.116 0 0 0-.055.909l-.082 2.148c-.827-.028-1.57-.028-2.259-.028-.688 0-1.487.028-2.396.028ZM266.382 79.592c-.936-.027-1.68-.027-2.175-.027-.634 0-1.35 0-2.176.027l.028-2.671c-.303.44-.579.826-.799 1.102-.22.275-.523.55-.881.798a6.082 6.082 0 0 1-1.185.634c-.413.165-.908.275-1.487.385a8.9 8.9 0 0 1-1.762.165c-1.212 0-2.258-.165-3.14-.523-.881-.358-1.597-.881-2.12-1.597-.524-.716-.771-1.735-.771-3.057v-.33l.247-4.159.248-5.48c0-.441.028-.992.028-1.653 1.019.028 1.817.028 2.396.028.606 0 1.349 0 2.231-.028l-.524 7.353a61.59 61.59 0 0 1-.082 1.432c-.028.386-.028.689-.028.854 0 .771.11 1.405.358 1.928A2.27 2.27 0 0 0 256 75.93a4.207 4.207 0 0 0 1.845.413 4.21 4.21 0 0 0 1.763-.358c.495-.22.936-.524 1.294-.91.358-.385.661-.908.909-1.569.193-.468.33-1.129.413-1.955.082-.579.138-1.597.22-3.057.083-1.735.138-3.525.193-5.315 1.074.027 1.873.027 2.451.027.633 0 1.349 0 2.148-.027-.138 1.542-.275 3.47-.413 5.755-.138 2.286-.248 4.214-.275 5.701-.111 1.542-.138 3.167-.166 4.957Z"/></g><defs><clipPath id="a"><path fill="#fff" d="M64.82 45.848H267.18v50.618H64.82z"/></clipPath></defs></svg>