<svg xmlns="http://www.w3.org/2000/svg" width="332" height="143" fill="none"><rect width="332" height="142" y=".143" fill="#fff" rx="11.493"/><g fill="#29313D" fill-opacity=".8" clip-path="url(#a)"><path d="M136.94 69.373a3.743 3.743 0 0 1 3.756 3.756 3.743 3.743 0 0 1-3.756 3.756 3.744 3.744 0 0 1-3.756-3.756c0-.695.196-1.368.521-1.932l-4.602-7.512h-.261c-.152 0-.282 0-.434-.022l-7.816 11.485c.282.521.434 1.13.434 1.759a3.743 3.743 0 0 1-3.756 3.756 3.744 3.744 0 0 1-3.756-3.756c0-.521.109-.999.283-1.455l-5.363-6.47a2.911 2.911 0 0 1-.76.087c-.108 0-.239 0-.347-.022L95.625 87.112c.304.542.478 1.172.478 1.845a3.757 3.757 0 1 1-3.756-3.756c.108 0 .238 0 .347.022l11.702-18.063a3.764 3.764 0 0 1-.478-1.846 3.744 3.744 0 0 1 3.756-3.756 3.743 3.743 0 0 1 3.756 3.756c0 .521-.108.999-.282 1.455l5.363 6.491a4.78 4.78 0 0 1 .781-.087c.152 0 .282 0 .434.022l7.816-11.485a3.704 3.704 0 0 1-.434-1.758 3.744 3.744 0 0 1 3.756-3.756 3.744 3.744 0 0 1 3.756 3.756c0 .694-.196 1.367-.521 1.932l4.624 7.512c.044-.022.13-.022.217-.022Zm-7.555 8.945c.391-.89 1.411-1.281 2.301-.89.89.39 1.281 1.411.89 2.301a21.898 21.898 0 0 1-8.119 9.51 21.8 21.8 0 0 1-11.941 3.538c-2.323 0-4.559-.369-6.687-1.042a21.604 21.604 0 0 1-6.036-3.04c-.781-.564-.977-1.65-.412-2.43.564-.782 1.65-.978 2.431-.413a18.337 18.337 0 0 0 5.081 2.561 18.36 18.36 0 0 0 5.623.869 18.29 18.29 0 0 0 10.052-2.974 18.5 18.5 0 0 0 6.817-7.99Zm-34.433-1.846a1.764 1.764 0 0 1-1.13 2.193 1.764 1.764 0 0 1-2.192-1.129 21.182 21.182 0 0 1-.781-3.278 22.24 22.24 0 0 1-.261-3.387c0-6.057 2.453-11.528 6.426-15.501 3.973-3.973 9.444-6.427 15.502-6.427 2.301 0 4.537.37 6.643 1.02a21.642 21.642 0 0 1 6.014 2.997c.782.543.977 1.628.413 2.431a1.737 1.737 0 0 1-2.432.413c-1.52-1.064-3.213-1.932-5.059-2.497a18.181 18.181 0 0 0-5.579-.868 18.323 18.323 0 0 0-13.027 5.406c-3.343 3.343-5.406 7.946-5.406 13.026 0 .999.066 1.954.218 2.844.151.956.369 1.867.65 2.757ZM150.748 63.424c.825-1.41 1.954-2.496 3.365-3.3a9.492 9.492 0 0 1 4.647-1.194c1.932 0 3.647.478 5.145 1.411 1.498.956 2.584 2.28 3.278 4.017h-3.56c-.478-.955-1.129-1.672-1.954-2.128-.825-.477-1.802-.694-2.888-.694-1.194 0-2.258.26-3.213.803a5.532 5.532 0 0 0-2.193 2.323c-.521.998-.803 2.17-.803 3.517 0 1.346.26 2.518.803 3.517.543.999 1.259 1.78 2.193 2.323.934.543 1.997.825 3.213.825 1.086 0 2.063-.239 2.888-.695.825-.456 1.476-1.172 1.954-2.127h3.56c-.673 1.737-1.758 3.083-3.278 4.016-1.498.934-3.213 1.411-5.145 1.411-1.694 0-3.257-.39-4.668-1.194-1.411-.781-2.519-1.888-3.344-3.3-.825-1.41-1.237-2.996-1.237-4.776 0-1.78.412-3.344 1.237-4.755ZM175.346 63.294c.717-.413 1.585-.608 2.562-.608v3.083h-.76c-1.172 0-2.04.304-2.648.89-.608.586-.89 1.607-.89 3.083v7.555h-2.975V62.925h2.975v2.084a4.698 4.698 0 0 1 1.736-1.715ZM193.692 71.219h-10.964c.087 1.15.521 2.062 1.281 2.757.76.695 1.694 1.042 2.823 1.042 1.606 0 2.735-.673 3.386-1.997h3.214a6.3 6.3 0 0 1-2.367 3.234c-1.129.847-2.54 1.26-4.233 1.26-1.368 0-2.606-.304-3.691-.934-1.086-.608-1.933-1.476-2.562-2.605-.63-1.13-.934-2.41-.934-3.886 0-1.477.304-2.78.89-3.887.608-1.129 1.433-1.975 2.519-2.583 1.085-.608 2.323-.912 3.734-.912 1.346 0 2.562.304 3.626.89a6.091 6.091 0 0 1 2.475 2.497c.586 1.064.89 2.301.89 3.69.022.5-.022.978-.087 1.434Zm-2.996-2.41c-.022-1.086-.412-1.976-1.172-2.627-.76-.652-1.716-.999-2.844-.999-1.021 0-1.911.326-2.627.977-.739.651-1.173 1.541-1.303 2.649h7.946ZM199.272 76.58a6.627 6.627 0 0 1-2.584-2.604c-.63-1.13-.933-2.41-.933-3.887 0-1.454.325-2.757.955-3.886.651-1.129 1.52-1.997 2.627-2.605 1.107-.608 2.345-.912 3.734-.912 1.389 0 2.605.304 3.734.912a6.59 6.59 0 0 1 2.627 2.605c.63 1.13.956 2.432.956 3.886 0 1.455-.326 2.758-.999 3.887-.652 1.129-1.563 1.997-2.692 2.627a7.83 7.83 0 0 1-3.756.933c-1.346-.022-2.584-.326-3.669-.955Zm5.818-2.192c.673-.369 1.216-.912 1.628-1.65.413-.738.63-1.606.63-2.649 0-1.042-.195-1.932-.608-2.648-.391-.717-.912-1.26-1.585-1.629a4.251 4.251 0 0 0-2.127-.542c-.76 0-1.477.173-2.128.542a3.867 3.867 0 0 0-1.542 1.629c-.39.716-.564 1.606-.564 2.648 0 1.542.391 2.736 1.194 3.583.782.846 1.78 1.259 2.974 1.259.739 0 1.455-.174 2.128-.543ZM223.609 63.403c.89.477 1.585 1.172 2.106 2.084.5.912.76 2.04.76 3.343v8.467h-2.952v-8.033c0-1.28-.326-2.28-.956-2.952-.651-.695-1.519-1.02-2.627-1.02-1.107 0-1.997.347-2.648 1.02-.652.695-.977 1.671-.977 2.952v8.033h-2.975V62.925h2.975v1.65c.477-.586 1.107-1.042 1.867-1.39.76-.325 1.563-.499 2.41-.499 1.107 0 2.127.239 3.017.717ZM243.301 71.219h-10.964c.087 1.15.521 2.062 1.281 2.757.76.695 1.693 1.042 2.822 1.042 1.607 0 2.736-.673 3.387-1.997h3.213a6.293 6.293 0 0 1-2.366 3.234c-1.129.847-2.54 1.26-4.234 1.26-1.367 0-2.605-.304-3.69-.934-1.086-.608-1.933-1.476-2.562-2.605-.63-1.13-.934-2.41-.934-3.886 0-1.477.304-2.78.89-3.887.608-1.129 1.433-1.975 2.519-2.583 1.085-.608 2.323-.912 3.734-.912 1.346 0 2.562.304 3.626.89a6.091 6.091 0 0 1 2.475 2.497c.586 1.064.89 2.301.89 3.69.022.5-.022.978-.087 1.434Zm-2.996-2.41c-.022-1.086-.413-1.976-1.172-2.627-.76-.652-1.716-.999-2.845-.999-1.02 0-1.91.326-2.627.977-.738.651-1.172 1.541-1.302 2.649h7.946Z"/></g><defs><clipPath id="a"><path fill="#fff" d="M88.59 48.843h154.82v43.891H88.59z"/></clipPath></defs></svg>