<svg xmlns="http://www.w3.org/2000/svg" width="151" height="143" fill="none"><rect width="151" height="142" y=".143" fill="#fff" rx="11.493"/><path fill="#29313D" fill-opacity=".8" fill-rule="evenodd" d="m46.013 72.886 15.412-15.408v-1.5H48.788l2.362 4.087-7.95 7.985L30 45.143h42.3v16.834L59.588 74.686l2.812 4.836L75 66.888v.075-.075l12.638 12.634 2.812-4.836-12.713-12.71V45.144H120L106.8 68.05l-7.95-7.948 2.363-4.086H88.575v1.5l15.412 15.408c-4.65 8.06-9.337 16.158-13.987 24.22L75 82.296 60 97.106c-4.65-8.061-9.3-16.122-13.987-24.22Z" clip-rule="evenodd"/></svg>