<svg xmlns="http://www.w3.org/2000/svg" width="332" height="143" fill="none"><rect width="332" height="142" y=".139" fill="#fff" rx="11.493"/><g fill="#5B5F77" clip-path="url(#a)" filter="url(#b)"><path fill-rule="evenodd" d="M84.632 47.41a8.958 8.958 0 0 1-8.965 8.965v6.54c8.564 0 15.504-6.94 15.504-15.505h-6.539Zm16.349 23.183a34.796 34.796 0 0 1-4.24 4.894 34.832 34.832 0 0 1-21.074 7.046v6.497l.675.042c9.26-.147 17.783-3.312 24.618-8.564a41.445 41.445 0 0 0 24.618 8.564l.717-.02v-6.519a34.95 34.95 0 0 1-21.074-7.025 34.908 34.908 0 0 1-4.24-4.915Zm-.38-9.197.38-.696.379.696c4.894 8.712 14.24 14.597 24.935 14.597v-6.539c-12.172 0-22.045-9.872-22.045-22.044h-6.539c0 4.957-1.645 9.535-4.388 13.205-4.029 5.38-10.442 8.839-17.656 8.839v6.54a28.47 28.47 0 0 0 20.546-8.713 27.952 27.952 0 0 0 4.388-5.885ZM110.79 47.41c0 8.564 6.94 15.505 15.505 15.505v-6.54a8.958 8.958 0 0 1-8.966-8.965h-6.539Z" clip-rule="evenodd"/><path d="m157.663 82.723-6.075-10.548h-3.312v10.548h-4.325v-26.39h9.113c2.026 0 3.734.359 5.148 1.055 1.413.696 2.447 1.666 3.143 2.848.696 1.18 1.055 2.51 1.055 3.987 0 1.73-.507 3.29-1.498 4.683-.992 1.413-2.532 2.362-4.62 2.869l6.54 10.927h-5.169v.02Zm-9.366-14.007h4.789c1.624 0 2.847-.401 3.67-1.224.823-.801 1.224-1.898 1.224-3.27 0-1.37-.401-2.425-1.224-3.206-.801-.78-2.046-1.16-3.692-1.16h-4.788v8.86h.021ZM168.19 58.231c-.528-.527-.802-1.181-.802-1.983 0-.801.274-1.434.802-1.982.527-.549 1.181-.802 1.983-.802.759 0 1.413.274 1.94.802.528.527.802 1.18.802 1.982s-.274 1.435-.802 1.983c-.527.549-1.181.802-1.94.802-.802 0-1.456-.274-1.983-.802Zm4.092 3.565v20.927h-4.324V61.796h4.324ZM192.955 62.493c1.308.675 2.321 1.687 3.059 3.037.738 1.35 1.097 2.954 1.097 4.852v12.34h-4.282V71.037c0-1.877-.464-3.312-1.414-4.303-.928-.992-2.215-1.498-3.839-1.498s-2.911.506-3.86 1.498c-.95.991-1.435 2.426-1.435 4.303v11.687h-4.303V61.797h4.324v2.383a7.059 7.059 0 0 1 2.722-2.004 8.982 8.982 0 0 1 3.522-.717c1.625 0 3.101.337 4.409 1.034ZM211.392 65.34h-3.881v17.383h-4.367V65.34h-2.468v-3.544h2.468V60.32c0-2.405.633-4.156 1.92-5.253 1.287-1.097 3.291-1.645 6.012-1.645v3.607c-1.308 0-2.236.253-2.764.738-.527.486-.801 1.35-.801 2.553v1.477h3.881v3.544ZM215.105 66.585c.865-1.624 2.067-2.89 3.565-3.776 1.498-.886 3.164-1.35 5-1.35 1.645 0 3.08.316 4.303.97 1.224.654 2.215 1.456 2.953 2.405v-3.038h4.367v20.927h-4.367V79.6c-.738.991-1.729 1.814-2.995 2.468-1.266.654-2.7.991-4.325.991-1.793 0-3.438-.464-4.936-1.392-1.498-.928-2.679-2.215-3.544-3.881-.865-1.667-1.308-3.544-1.308-5.633 0-2.088.401-3.945 1.287-5.569Zm14.914 1.899c-.59-1.055-1.371-1.878-2.341-2.426-.971-.549-2.004-.844-3.122-.844a6.223 6.223 0 0 0-3.122.823c-.95.548-1.709 1.329-2.321 2.383-.591 1.055-.886 2.3-.886 3.734 0 1.435.295 2.7.886 3.797s1.371 1.92 2.363 2.49c.991.57 2.004.843 3.101.843a6.037 6.037 0 0 0 3.122-.844c.97-.548 1.751-1.37 2.341-2.447.591-1.075.886-2.341.886-3.775-.021-1.414-.316-2.68-.907-3.734ZM245.292 54.624v28.1h-4.324v-28.1h4.324ZM255.333 54.624v28.1h-4.324v-28.1h4.324Z"/></g><defs><clipPath id="a"><path fill="#fff" d="M79.048 50.632h173.905v40.225H79.048z"/></clipPath><filter id="b" width="181.905" height="48.225" x="75.048" y="50.632" color-interpolation-filters="sRGB" filterUnits="userSpaceOnUse"><feFlood flood-opacity="0" result="BackgroundImageFix"/><feColorMatrix in="SourceAlpha" result="hardAlpha" values="0 0 0 0 0 0 0 0 0 0 0 0 0 0 0 0 0 0 127 0"/><feOffset dy="4"/><feGaussianBlur stdDeviation="2"/><feComposite in2="hardAlpha" operator="out"/><feColorMatrix values="0 0 0 0 0 0 0 0 0 0 0 0 0 0 0 0 0 0 0.25 0"/><feBlend in2="BackgroundImageFix" result="effect1_dropShadow_3_1112"/><feBlend in="SourceGraphic" in2="effect1_dropShadow_3_1112" result="shape"/></filter></defs></svg>