<svg xmlns="http://www.w3.org/2000/svg" width="151" height="143" fill="none"><rect width="151" height="142" y=".143" fill="#fff" rx="11.493"/><path fill="#5B5F77" d="M68.385 42.643a5.695 5.695 0 0 0-5.692 5.7c0 1.507.6 2.961 1.662 4.03a5.696 5.696 0 0 0 4.03 1.67h5.693v-5.7a5.705 5.705 0 0 0-5.693-5.7Zm0 15.2H53.193a5.695 5.695 0 0 0-5.693 5.7 5.7 5.7 0 0 0 5.693 5.7h15.185a5.695 5.695 0 0 0 5.692-5.7 5.689 5.689 0 0 0-5.685-5.7Zm15.185 11.4a5.69 5.69 0 0 0 5.693-5.7v-15.2c0-3.147-2.546-5.7-5.693-5.7a5.695 5.695 0 0 0-5.692 5.7v15.2a5.69 5.69 0 0 0 5.692 5.7Zm20.885-5.7a5.7 5.7 0 0 0-5.692-5.7 5.7 5.7 0 0 0-5.693 5.7v5.7h5.693a5.7 5.7 0 0 0 5.692-5.7Zm-5.7 9.5H83.57a5.695 5.695 0 0 0-5.692 5.7c0 1.507.6 2.961 1.662 4.03a5.696 5.696 0 0 0 4.03 1.67h15.186a5.695 5.695 0 0 0 5.692-5.7c.007-3.147-2.546-5.692-5.692-5.7Zm-15.185 15.2h-5.692v5.7a5.7 5.7 0 0 0 5.692 5.7 5.69 5.69 0 0 0 5.693-5.7c.007-3.147-2.546-5.692-5.693-5.7Zm-15.185-15.2a5.695 5.695 0 0 0-5.692 5.7v15.2a5.7 5.7 0 0 0 5.692 5.7 5.69 5.69 0 0 0 5.693-5.7v-15.2a5.733 5.733 0 0 0-1.663-4.03 5.708 5.708 0 0 0-4.03-1.67Zm-20.885 5.7c0 1.507.601 2.961 1.663 4.03a5.696 5.696 0 0 0 9.722-4.03v-5.7h-5.692a5.7 5.7 0 0 0-5.693 5.7Z"/></svg>
