<svg xmlns="http://www.w3.org/2000/svg" width="290" height="142" fill="none"><rect width="290" height="142" fill="#fff" rx="11.493"/><g fill="#29313D" fill-opacity=".8" clip-path="url(#a)"><path fill-rule="evenodd" d="M100.788 52.662H84.823v38.075a2.653 2.653 0 1 1-5.308 0V52.662H63.55v32.727c0 1.477 1.158 2.694 2.654 2.694a2.653 2.653 0 0 0 2.655-2.654V58.01h5.328v27.42a7.98 7.98 0 0 1-7.983 7.982 7.98 7.98 0 0 1-7.982-7.982V47.333h47.894V85.41a7.98 7.98 0 0 1-7.982 7.982 7.98 7.98 0 0 1-7.983-7.982V57.97h5.329v27.42a2.653 2.653 0 0 0 2.654 2.654 2.653 2.653 0 0 0 2.654-2.654V52.662Z" clip-rule="evenodd"/><path d="M125.832 56.792v18c0 2.136.559 3.752 1.677 4.83 1.117 1.078 2.694 1.616 4.689 1.616 2.036 0 3.612-.538 4.73-1.616 1.117-1.078 1.676-2.694 1.676-4.83v-18h4.63v17.92c0 2.296-.499 4.251-1.497 5.848-.998 1.596-2.335 2.794-4.031 3.572-1.676.778-3.532 1.177-5.568 1.177-2.035 0-3.871-.399-5.547-1.177a8.987 8.987 0 0 1-3.951-3.572c-.978-1.597-1.457-3.552-1.457-5.847v-17.92h4.649ZM153.91 54.977V85.03h-4.629V54.977h4.629ZM159.857 67.768c.938-1.736 2.215-3.073 3.812-4.05 1.616-.959 3.392-1.438 5.348-1.438 1.756 0 3.293.34 4.61 1.038 1.317.698 2.354 1.556 3.153 2.574V62.64h4.669v22.39h-4.669v-3.333c-.779 1.058-1.856 1.936-3.213 2.634-1.357.699-2.894 1.058-4.63 1.058a9.968 9.968 0 0 1-5.288-1.477c-1.597-.997-2.874-2.374-3.792-4.15-.938-1.776-1.397-3.792-1.397-6.027 0-2.235.459-4.23 1.397-5.967Zm15.965 2.036c-.639-1.138-1.477-1.996-2.495-2.595a6.522 6.522 0 0 0-3.332-.898c-1.198 0-2.295.3-3.333.878-1.038.58-1.856 1.437-2.494 2.555-.639 1.117-.958 2.454-.958 4.01 0 1.557.319 2.894.958 4.072.638 1.157 1.476 2.055 2.514 2.654a6.388 6.388 0 0 0 3.313.918c1.197 0 2.295-.3 3.332-.898 1.038-.599 1.856-1.477 2.495-2.614.638-1.158.958-2.495.958-4.051 0-1.557-.32-2.894-.958-4.031ZM195.398 63.318c1.377-.698 2.894-1.038 4.57-1.038 1.976 0 3.772.48 5.368 1.417 1.597.958 2.854 2.295 3.772 4.051.918 1.756 1.377 3.752 1.377 5.987 0 2.235-.459 4.25-1.377 6.027-.918 1.776-2.195 3.153-3.792 4.15-1.616.998-3.392 1.477-5.348 1.477-1.736 0-3.273-.34-4.61-1.018-1.337-.678-2.394-1.536-3.192-2.594v3.253h-4.63V54.977h4.63v11.015c.798-1.097 1.875-1.976 3.232-2.674Zm9.419 6.426c-.638-1.118-1.476-1.976-2.514-2.555a6.783 6.783 0 0 0-3.353-.877 6.56 6.56 0 0 0-3.312.898c-1.038.598-1.876 1.456-2.515 2.594-.638 1.137-.957 2.474-.957 4.03 0 1.537.319 2.894.957 4.052.639 1.157 1.477 2.015 2.515 2.614a6.56 6.56 0 0 0 3.312.898c1.198 0 2.315-.3 3.353-.918 1.038-.619 1.876-1.497 2.514-2.654.639-1.157.958-2.514.958-4.071s-.319-2.894-.958-4.011ZM218.467 84.451c-1.397-.638-2.494-1.496-3.312-2.594-.819-1.098-1.238-2.315-1.298-3.672h4.79c.08.958.539 1.736 1.357 2.375.818.638 1.856.958 3.113.958 1.297 0 2.315-.26 3.033-.759.719-.499 1.078-1.137 1.078-1.935 0-.838-.399-1.457-1.198-1.876-.798-.4-2.075-.858-3.791-1.337-1.676-.46-3.053-.918-4.111-1.337a7.076 7.076 0 0 1-2.734-1.996c-.778-.898-1.157-2.075-1.157-3.532 0-1.197.359-2.275 1.057-3.273.699-.998 1.716-1.776 3.034-2.335 1.317-.558 2.833-.858 4.529-.858 2.555 0 4.59.639 6.147 1.936 1.556 1.297 2.395 3.033 2.494 5.268h-4.629c-.08-.997-.479-1.796-1.218-2.394-.738-.6-1.716-.898-2.973-.898-1.217 0-2.155.24-2.794.698-.658.459-.978 1.078-.978 1.836 0 .599.22 1.098.659 1.497.439.399.958.718 1.576.958.619.239 1.537.518 2.754.878 1.617.439 2.954.878 4.011 1.317a7.257 7.257 0 0 1 2.694 1.975c.759.858 1.158 2.016 1.178 3.453 0 1.277-.359 2.414-1.058 3.412-.698.998-1.696 1.796-2.993 2.355-1.297.559-2.794.858-4.53.858-1.756-.04-3.333-.34-4.73-.978Z"/></g><defs><clipPath id="a"><path fill="#fff" d="M33 47h227v46H33z"/></clipPath></defs></svg>